<svg xmlns="http://www.w3.org/2000/svg" version="1.1" xmlns:xlink="http://www.w3.org/1999/xlink" xmlns:svgjs="http://svgjs.dev/svgjs" width="1000" height="161" viewBox="0 0 1000 161"><g transform="matrix(1,0,0,1,-0.606059307448902,0.5591583712313195)"><svg viewBox="0 0 396 64" data-background-color="#ffffff" preserveAspectRatio="xMidYMid meet" height="161" width="1000" xmlns="http://www.w3.org/2000/svg" xmlns:xlink="http://www.w3.org/1999/xlink"><g id="tight-bounds" transform="matrix(1,0,0,1,0.23999948574976315,-0.2222717268506642)"><svg viewBox="0 0 395.52 64.44453711607713" height="64.44453711607713" width="395.52"><g><svg viewBox="0 0 661.2661576041025 107.74421378773081" height="64.44453711607713" width="395.52"><g transform="matrix(1,0,0,1,265.74615760410256,8.728175269933793)"><svg viewBox="0 0 395.52 90.28786324786323" height="90.28786324786323" width="395.52"><g id="textblocktransform"><svg viewBox="0 0 395.52 90.28786324786323" height="90.28786324786323" width="395.52" id="textblock"><g><svg viewBox="0 0 395.52 90.28786324786323" height="90.28786324786323" width="395.52"><g transform="matrix(1,0,0,1,0,0)"><svg width="395.52" viewBox="-0.25 -31.549999237060547 140.38999938964844 32.04999923706055" height="90.28786324786323" data-palette-color="#2c3531"><path d="M20.75-31.05L20.25-23.5 14.45-23.5 14.45 0 5.9 0 5.9-23.5-0.25-23.5 0.25-31.05 20.75-31.05ZM43.95-21.2L43.95-21.2Q43.95-18.4 43.1-16.55 42.25-14.7 40.45-13.2L40.45-13.2 44.6 0 35.35 0 32.25-11.2 31.1-11.2 31.1 0 22.7 0 22.7-31.05 34.3-31.05Q39.3-31.05 41.62-28.7 43.95-26.35 43.95-21.2ZM32.4-16.45Q33.7-16.45 34.25-17.2 34.8-17.95 34.8-19.93 34.8-21.9 34.25-22.68 33.7-23.45 32.45-23.45L32.45-23.45 31.1-23.45 31.1-16.45 32.4-16.45ZM64-31.05L69.7 0 61.35 0 60.4-4.9 54.5-4.9 53.55 0 45.6 0 51.3-31.05 64-31.05ZM55.6-10.75L59.45-10.75 57.7-21.85 57.35-21.85 55.6-10.75ZM79.99-15.23Q79.99-10.8 80.87-8.93 81.74-7.05 83.74-7.05 85.74-7.05 89.39-8L89.39-8 90.69-0.95Q86.74 0.5 82.74 0.5L82.74 0.5Q76.74 0.5 74.02-3.48 71.29-7.45 71.29-15.33 71.29-23.2 74.14-27.38 76.99-31.55 83.44-31.55L83.44-31.55Q87.24-31.55 90.69-29.95L90.69-29.95 89.34-22.2Q85.44-23.5 83.89-23.5L83.89-23.5Q81.69-23.5 80.84-21.58 79.99-19.65 79.99-15.23ZM109.24-15L114.79 0 105.34 0 101.59-11.7 101.09-11.7 101.09 0 92.79 0 92.79-31.05 101.09-31.05 101.09-18.05 101.59-18.05 106.09-31.05 115.29-31.05 109.24-15ZM140.14-16.2L140.14-16.2Q140.14 0 127.34 0L127.34 0 117.04 0 117.04-31.05 127.54-31.05Q134.39-31.05 137.26-27.23 140.14-23.4 140.14-16.2ZM127.19-7.2Q129.84-7.2 130.61-9.08 131.39-10.95 131.39-15.38 131.39-19.8 130.56-21.65 129.74-23.5 127.04-23.5L127.04-23.5 125.54-23.5 125.54-7.2 127.19-7.2Z" opacity="1" transform="matrix(1,0,0,1,0,0)" fill="#2c3531" class="wordmark-text-0" data-fill-palette-color="primary" id="text-0"></path></svg></g></svg></g></svg></g></svg></g><g><svg viewBox="0 0 244.43135999999998 107.74421378773081" height="107.74421378773081" width="244.43135999999998"><g><svg xmlns:x="http://ns.adobe.com/Extensibility/1.0/" xmlns:i="http://ns.adobe.com/AdobeIllustrator/10.0/" xmlns:graph="http://ns.adobe.com/Graphs/1.0/" xmlns="http://www.w3.org/2000/svg" xmlns:xlink="http://www.w3.org/1999/xlink" version="1.1" x="0" y="0" viewBox="6 30.60500144958496 88 38.78999328613281" enable-background="new 0 0 100 100" xml:space="preserve" height="107.74421378773081" width="244.43135999999998" class="icon-icon-0" data-fill-palette-color="accent" id="icon-0"><g fill="#eec6a4" data-fill-palette-color="accent"><path d="M94 50c0-0.442-0.195-0.836-0.5-1.111V47.5c0-0.552-0.447-1-1-1s-1 0.448-1 1v1h-1.974v-8.789c0-2.308-1.877-4.185-4.185-4.185H84c-2.308 0-4.185 1.877-4.185 4.185V48.5h-1.474V35.237c0-2.308-1.877-4.185-4.184-4.185h-3.579c-2.308 0-4.185 1.877-4.185 4.185V43.5H33.605v-8.711c0-2.307-1.877-4.184-4.185-4.184h-3.579c-2.308 0-4.185 1.877-4.185 4.184V48.5h-1.474v-8.789c0-2.308-1.877-4.185-4.184-4.185h-1.342c-2.307 0-4.184 1.877-4.184 4.185V48.5H8.5v-1c0-0.552-0.448-1-1-1s-1 0.448-1 1v1.389C6.195 49.164 6 49.558 6 50s0.195 0.836 0.5 1.111V52.5c0 0.553 0.448 1 1 1s1-0.447 1-1v-1h1.974v8.789c0 2.308 1.877 4.185 4.184 4.185H16c2.307 0 4.184-1.877 4.184-4.185V51.5h1.474v13.263c0 2.308 1.877 4.185 4.185 4.185h3.579c2.308 0 4.185-1.877 4.185-4.185V56.5h32.789v8.71c0 2.308 1.877 4.185 4.185 4.185h3.579c2.307 0 4.184-1.877 4.184-4.185V51.5h1.474v8.789c0 2.308 1.877 4.185 4.185 4.185h1.342c2.308 0 4.185-1.877 4.185-4.185V51.5H91.5v1c0 0.553 0.447 1 1 1s1-0.447 1-1v-1.39C93.805 50.836 94 50.442 94 50zM17.184 60.289c0 0.653-0.531 1.185-1.184 1.185h-1.342c-0.653 0-1.184-0.531-1.184-1.185V39.711c0-0.653 0.531-1.185 1.184-1.185H16c0.653 0 1.184 0.531 1.184 1.185V60.289zM30.605 64.763c0 0.653-0.531 1.185-1.185 1.185h-3.579c-0.653 0-1.185-0.531-1.185-1.185V34.789c0-0.653 0.531-1.184 1.185-1.184h3.579c0.653 0 1.185 0.531 1.185 1.184V64.763zM66 53.5H34v-7h32V53.5zM75.342 65.21c0 0.653-0.531 1.185-1.184 1.185h-3.579c-0.653 0-1.185-0.531-1.185-1.185V35.237c0-0.653 0.531-1.185 1.185-1.185h3.579c0.652 0 1.184 0.531 1.184 1.185V65.21zM86.526 60.289c0 0.653-0.531 1.185-1.185 1.185H84c-0.653 0-1.185-0.531-1.185-1.185V39.711c0-0.653 0.531-1.185 1.185-1.185h1.342c0.653 0 1.185 0.531 1.185 1.185V60.289z" fill="#eec6a4" data-fill-palette-color="accent"></path><path d="M37.5 51h25c0.553 0 1-0.448 1-1s-0.447-1-1-1h-25c-0.552 0-1 0.448-1 1S36.948 51 37.5 51z" fill="#eec6a4" data-fill-palette-color="accent"></path></g></svg></g></svg></g></svg></g><defs></defs></svg><rect width="395.52" height="64.44453711607713" fill="none" stroke="none" visibility="hidden"></rect></g></svg></g></svg>